<?xml version="1.0" standalone="no"?>
<!DOCTYPE svg PUBLIC "-//W3C//DTD SVG 20010904//EN"
 "http://www.w3.org/TR/2001/REC-SVG-20010904/DTD/svg10.dtd">
<svg version="1.0" xmlns="http://www.w3.org/2000/svg"
 width="110.000000pt" height="82.000000pt" viewBox="0 0 110.000000 82.000000"
 preserveAspectRatio="xMidYMid meet">

<g transform="translate(0.000000,82.000000) scale(0.100000,-0.100000)"
fill="#000000" stroke="none">
<path d="M0 410 l0 -410 550 0 550 0 0 410 0 410 -550 0 -550 0 0 -410z m704
45 c56 -103 97 -153 129 -160 15 -3 40 -7 56 -10 15 -4 39 -16 52 -28 l24 -22
-45 -5 -45 -5 60 -41 c33 -22 75 -46 93 -53 38 -16 42 -31 7 -31 -56 0 -136
25 -223 71 -58 31 -106 49 -127 49 -19 0 -37 5 -40 10 -4 6 32 10 101 10 l107
0 -22 24 c-14 15 -40 27 -65 31 -55 9 -137 47 -166 76 -72 76 -80 237 -14 310
18 19 19 18 49 -68 16 -48 47 -119 69 -158z m-276 171 c51 -27 59 -54 64 -233
l5 -163 -36 0 c-21 0 -46 6 -56 14 -17 12 -24 12 -49 -1 -39 -20 -119 -20
-151 1 -79 52 -79 170 0 222 13 9 57 20 96 25 40 5 75 12 78 15 10 9 -48 54
-70 54 -11 0 -36 -7 -56 -15 -19 -8 -39 -15 -44 -15 -11 0 -43 69 -36 77 4 3
30 14 59 25 62 22 147 19 196 -6z"/>
<path d="M278 399 c-21 -12 -24 -49 -6 -67 15 -15 63 -16 89 -2 13 8 19 21 19
45 0 34 -1 35 -42 35 -24 0 -51 -5 -60 -11z"/>
</g>
</svg>
